<svg width="30" height="30" viewBox="0 0 30 30" fill="none" xmlns="http://www.w3.org/2000/svg">
<path opacity="0.8" d="M28.5 24.0001H25.5V19.5001C25.5 19.1023 25.342 18.7207 25.0607 18.4394C24.7794 18.1581 24.3978 18.0001 24 18.0001H16.5V13.9351L18.195 14.8201C18.4422 14.9494 18.7205 15.0072 18.9988 14.987C19.277 14.9669 19.5441 14.8695 19.7701 14.7059C19.996 14.5423 20.1718 14.3189 20.2778 14.0608C20.3838 13.8028 20.4157 13.5203 20.37 13.2451L19.77 9.69009L22.35 7.15509C22.5454 6.96427 22.685 6.72371 22.7537 6.45937C22.8225 6.19502 22.8177 5.91693 22.74 5.65509C22.6531 5.3885 22.4931 5.15162 22.2784 4.97133C22.0636 4.79104 21.8026 4.67455 21.525 4.63509L18 4.08009L16.35 0.840092C16.2272 0.586486 16.0354 0.372605 15.7966 0.222953C15.5579 0.0732998 15.2818 -0.006073 15 -0.006073C14.7182 -0.006073 14.4421 0.0732998 14.2034 0.222953C13.9646 0.372605 13.7728 0.586486 13.65 0.840092L12 4.08009L8.415 4.60509C8.13738 4.64455 7.87639 4.76104 7.66162 4.94133C7.44686 5.12162 7.28694 5.3585 7.2 5.62509C7.12228 5.88693 7.11753 6.16502 7.18626 6.42936C7.25499 6.69371 7.39459 6.93427 7.59 7.12509L10.23 9.69009L9.63 13.2451C9.58427 13.5203 9.61619 13.8028 9.72218 14.0608C9.82816 14.3189 10.004 14.5423 10.2299 14.7059C10.4559 14.8695 10.723 14.9669 11.0012 14.987C11.2795 15.0072 11.5578 14.9494 11.805 14.8201L13.5 13.9351V18.0001H6C5.60218 18.0001 5.22064 18.1581 4.93934 18.4394C4.65804 18.7207 4.5 19.1023 4.5 19.5001V24.0001H1.5C1.10218 24.0001 0.720644 24.1581 0.43934 24.4394C0.158035 24.7207 0 25.1023 0 25.5001V28.5001C0 28.8979 0.158035 29.2794 0.43934 29.5608C0.720644 29.8421 1.10218 30.0001 1.5 30.0001C1.89782 30.0001 2.27936 29.8421 2.56066 29.5608C2.84196 29.2794 3 28.8979 3 28.5001V27.0001H9V28.5001C9 28.8979 9.15804 29.2794 9.43934 29.5608C9.72064 29.8421 10.1022 30.0001 10.5 30.0001C10.8978 30.0001 11.2794 29.8421 11.5607 29.5608C11.842 29.2794 12 28.8979 12 28.5001V25.5001C12 25.1023 11.842 24.7207 11.5607 24.4394C11.2794 24.1581 10.8978 24.0001 10.5 24.0001H7.5V21.0001H22.5V24.0001H19.5C19.1022 24.0001 18.7206 24.1581 18.4393 24.4394C18.158 24.7207 18 25.1023 18 25.5001V28.5001C18 28.8979 18.158 29.2794 18.4393 29.5608C18.7206 29.8421 19.1022 30.0001 19.5 30.0001C19.8978 30.0001 20.2794 29.8421 20.5607 29.5608C20.842 29.2794 21 28.8979 21 28.5001V27.0001H27V28.5001C27 28.8979 27.158 29.2794 27.4393 29.5608C27.7206 29.8421 28.1022 30.0001 28.5 30.0001C28.8978 30.0001 29.2794 29.8421 29.5607 29.5608C29.842 29.2794 30 28.8979 30 28.5001V25.5001C30 25.1023 29.842 24.7207 29.5607 24.4394C29.2794 24.1581 28.8978 24.0001 28.5 24.0001ZM15 9.94509C14.7538 9.94632 14.5117 10.0081 14.295 10.1251L13.095 10.7551L13.32 9.40509C13.3594 9.1663 13.3404 8.92153 13.2646 8.69167C13.1889 8.46182 13.0586 8.2537 12.885 8.08509L11.91 7.12509L13.26 6.93009C13.5015 6.89782 13.7315 6.80721 13.9302 6.66607C14.1288 6.52494 14.2901 6.33754 14.4 6.12009L15 4.89009L15.6 6.12009C15.7099 6.33754 15.8712 6.52494 16.0698 6.66607C16.2685 6.80721 16.4985 6.89782 16.74 6.93009L18.09 7.12509L17.115 8.08509C16.9414 8.2537 16.8111 8.46182 16.7354 8.69167C16.6596 8.92153 16.6406 9.1663 16.68 9.40509L16.905 10.7551L15.705 10.1251C15.4883 10.0081 15.2462 9.94632 15 9.94509Z" fill="#101130"/>
</svg>
