<svg width="32" height="32" viewBox="0 0 32 32" fill="none" xmlns="http://www.w3.org/2000/svg">
<path opacity="0.8" d="M29.755 1.09C28.6798 0.904799 27.591 0.80947 26.5 0.804999C22.7775 0.801947 19.1327 1.86936 16 3.88C12.8592 1.89576 9.21497 0.854545 5.49999 0.879999C4.40896 0.88447 3.3202 0.979799 2.24499 1.165C1.8928 1.22572 1.57386 1.41019 1.34561 1.68519C1.11736 1.96019 0.994796 2.30765 0.999992 2.665V20.665C0.996779 20.8854 1.04218 21.1038 1.13297 21.3047C1.22375 21.5055 1.35769 21.6839 1.52525 21.8271C1.69281 21.9703 1.88988 22.0749 2.10243 22.1333C2.31497 22.1917 2.53778 22.2025 2.75499 22.165C4.90452 21.7928 7.10679 21.8546 9.23209 22.3466C11.3574 22.8386 13.3627 23.751 15.13 25.03L15.31 25.135H15.475C15.6413 25.2043 15.8198 25.24 16 25.24C16.1802 25.24 16.3586 25.2043 16.525 25.135H16.69L16.87 25.03C18.6249 23.7224 20.6245 22.7805 22.7502 22.26C24.8759 21.7395 27.0845 21.6511 29.245 22C29.4622 22.0375 29.685 22.0267 29.8976 21.9683C30.1101 21.9099 30.3072 21.8053 30.4747 21.6621C30.6423 21.5189 30.7762 21.3405 30.867 21.1397C30.9578 20.9388 31.0032 20.7204 31 20.5V2.5C30.9844 2.15823 30.8524 1.83206 30.626 1.57561C30.3995 1.31915 30.0922 1.1478 29.755 1.09ZM14.5 21.025C11.7248 19.565 8.63577 18.8031 5.49999 18.805C5.00499 18.805 4.50999 18.805 3.99999 18.805V3.805C4.49958 3.77621 5.00041 3.77621 5.49999 3.805C8.70007 3.80146 11.8303 4.74054 14.5 6.505V21.025ZM28 18.865C27.49 18.865 26.995 18.865 26.5 18.865C23.3642 18.8631 20.2752 19.625 17.5 21.085V6.505C20.1697 4.74054 23.2999 3.80146 26.5 3.805C26.9996 3.77621 27.5004 3.77621 28 3.805V18.865ZM29.755 25.09C28.6798 24.9048 27.591 24.8095 26.5 24.805C22.7775 24.8019 19.1327 25.8694 16 27.88C12.8673 25.8694 9.22244 24.8019 5.49999 24.805C4.40896 24.8095 3.3202 24.9048 2.24499 25.09C2.04973 25.121 1.86253 25.1903 1.69414 25.2939C1.52574 25.3974 1.37949 25.5333 1.26379 25.6936C1.14809 25.8539 1.06522 26.0355 1.01995 26.228C0.974675 26.4204 0.967893 26.6199 0.999992 26.815C1.07622 27.2045 1.30373 27.548 1.63268 27.7701C1.96163 27.9922 2.3652 28.0749 2.75499 28C4.90452 27.6278 7.10679 27.6896 9.23209 28.1816C11.3574 28.6737 13.3627 29.586 15.13 30.865C15.384 31.0459 15.6881 31.1431 16 31.1431C16.3118 31.1431 16.6159 31.0459 16.87 30.865C18.6373 29.586 20.6426 28.6737 22.7679 28.1816C24.8932 27.6896 27.0955 27.6278 29.245 28C29.6348 28.0749 30.0384 27.9922 30.3673 27.7701C30.6963 27.548 30.9238 27.2045 31 26.815C31.0321 26.6199 31.0253 26.4204 30.98 26.228C30.9348 26.0355 30.8519 25.8539 30.7362 25.6936C30.6205 25.5333 30.4742 25.3974 30.3058 25.2939C30.1375 25.1903 29.9502 25.121 29.755 25.09Z" fill="#101130"/>
</svg>
